<?xml version="1.0" encoding="utf-8"?>
<!-- Generator: Adobe Illustrator 21.0.0, SVG Export Plug-In . SVG Version: 6.00 Build 0)  -->
<svg version="1.1" id="Layer_1" xmlns="http://www.w3.org/2000/svg" xmlns:xlink="http://www.w3.org/1999/xlink" x="0px" y="0px"
	 viewBox="0 0 14 14" style="enable-background:new 0 0 14 14;" xml:space="preserve">
<style type="text/css">
	.st0{fill:#649AA9;}
	.st1{clip-path:url(#SVGID_2_);}
	.st2{fill:#FFFFFF;}
</style>
<title>bandcamp</title>
<g id="Layer_4">
	<rect class="st0" width="14" height="14"/>
	<g>
		<defs>
			<rect id="SVGID_1_" x="1.1" y="5.1" width="11.8" height="3.9"/>
		</defs>
		<clipPath id="SVGID_2_">
			<use xlink:href="#SVGID_1_"  style="overflow:visible;"/>
		</clipPath>
		<g class="st1">
			<path class="st2" d="M8.8,6.5c-0.5,0-0.7,0.4-0.7,1s0.3,1,0.7,1c0.5,0,0.7-0.5,0.7-1S9.3,6.5,8.8,6.5 M7.5,5.1h0.6v1.4l0,0
				C8.3,6.2,8.6,6,8.9,6c0.8,0,1.2,0.7,1.2,1.5S9.8,8.9,9,8.9C8.7,9,8.3,8.8,8.1,8.5l0,0v0.4H7.6L7.5,5.1L7.5,5.1z"/>
			<path class="st2" d="M12.3,7c0-0.3-0.3-0.5-0.6-0.5c0,0,0,0,0,0c-0.3,0-0.7,0.2-0.7,1c0,0.5,0.2,0.9,0.7,0.9
				c0.3,0,0.6-0.3,0.6-0.6h0.6c0,0.6-0.5,1.1-1.1,1.1c0,0-0.1,0-0.1,0c-0.7,0-1.3-0.6-1.3-1.3c0-0.1,0-0.1,0-0.2
				c-0.1-0.7,0.4-1.4,1.1-1.5c0.1,0,0.1,0,0.2,0c0.6-0.1,1.1,0.4,1.2,1C12.9,7,12.3,7,12.3,7z"/>
		</g>
	</g>
	<polygon class="st2" points="5.5,8.9 1.1,8.9 3.1,5.1 7.5,5.1 5.5,8.9 	"/>
</g>
</svg>
