<?xml version="1.0" encoding="utf-8"?>
<!-- Generator: Adobe Illustrator 21.0.0, SVG Export Plug-In . SVG Version: 6.00 Build 0)  -->
<svg version="1.1" id="Layer_1" xmlns="http://www.w3.org/2000/svg" xmlns:xlink="http://www.w3.org/1999/xlink" x="0px" y="0px"
	 viewBox="0 0 186.5 54.5" style="enable-background:new 0 0 186.5 54.5;" xml:space="preserve">
<style type="text/css">
	.st0{fill:#231F20;}
</style>
<g>
	<path class="st0" d="M4.1,6.5c1.2-0.1,2.4-0.1,3.5-0.1c4.7,0.2,9.3,0.9,13.6,2.9c1.6,0.7,3.1,1.6,4.2,3c0.8,1.1,0.6,2.6-0.6,3.3
		C23,16.7,21,17,19,17.3c-3.4,0.4-6.8,0.3-10.2-0.6c-0.3-0.1-0.5-0.2-0.7-0.5C8,16.1,8,16.1,8,16c0.1-0.1,0.1-0.1,0.2-0.1
		c4.5,0.3,8.9,0,13.3-0.8c0.8-0.1,1.5-0.5,2.1-0.9c0.5-0.3,0.5-0.6,0.2-1c-0.5-0.7-1.2-1.2-2-1.6c-2.5-1.4-5.1-2.2-7.9-2.7
		c-4.1-0.8-8.3-1-12.4-0.4c-0.1,0-0.3,0-0.4,0c-0.5,0-0.8-0.2-1-0.6s0-0.8,0.3-1.1c0.9-0.9,2-1.5,3.1-2.1c2.9-1.7,5.8-3.1,9-4
		C13.8,0.3,15.1,0,16.4,0c0.4,0,0.8,0.1,1.2,0.2c0.4,0.2,0.7,0.5,0.6,0.9c-0.1,0.5-0.4,0.8-0.9,0.8c-0.7,0-1.3,0-2-0.1
		c-0.6,0-1.3,0.2-2,0.4C10,3.1,7,4.5,4.1,6.2C4.2,6.3,4.1,6.3,4.1,6.5z"/>
	<path class="st0" d="M159.2,26c0.6,0.5,1.1,0.9,1.5,1.4c1.1,1.3,2,2.8,2.8,4.3c0.8,1.6,1.5,3.2,2.1,4.9c1,2.8,1.5,5.6,0.6,8.5
		c-0.5,1.8-1.6,3.3-3.1,4.5c-1.7,1.3-3.7,1.9-5.8,2c-1.8,0.1-3.5-0.3-5.1-1c-2.8-1.2-5.1-3.1-7.2-5.3c-0.3-0.4-0.7-0.7-1.1-1.2
		c0,1.1,0,2.1,0,3.1c0.1,1.5-0.3,2.9-0.8,4.3c-0.3,0.8-1.5,1.3-2.3,1c-0.2-0.1-0.3-0.3-0.3-0.5s0.1-0.5,0.4-0.5
		c0.5-0.1,0.6-0.4,0.7-0.8c0.4-1,0.6-2.1,0.6-3.2c0-1.3,0-2.7-0.1-4c0-0.3,0-0.6,0-0.9c0-0.4,0.2-0.8,0.6-1c0.5-0.2,0.9-0.1,1.3,0.2
		c0.8,0.7,1.5,1.5,2.2,2.3c1.9,2,3.9,3.8,6.5,4.8c3.4,1.5,6.7,1.4,9.7-1c1.4-1.1,2.2-2.7,2.4-4.5c0.3-2.2-0.2-4.3-0.7-6.4
		c-0.8-3-1.9-6-3.4-8.8c-0.3-0.6-0.7-1.1-1.1-1.6C159.4,26.5,159.2,26.4,159.2,26z"/>
	<path class="st0" d="M48.2,45.5c-1.1,0.5-2.1,1.1-3.2,1.4c-1.2,0.3-2.5,0.5-3.5-0.5c-0.9-0.8-1.2-2-1.2-3.1c-0.1-1.7,0.4-3.4,1.1-5
		c1.1-2.5,2.5-4.7,4.6-6.4c0.8-0.6,2.1-0.9,2.9-0.5c0.4,0.2,0.5,0.6,0.7,0.9c0.1,0.1,0,0.3-0.1,0.4s-0.3,0.2-0.4,0.1
		c-1-0.7-1.7,0-2.3,0.5c-1.9,1.6-3.2,3.7-4.1,6.1c-0.5,1.2-0.8,2.4-0.8,3.7c0,0.5,0.1,1,0.3,1.4c0.4,1,1.2,1.5,2.5,1.3
		c1.2-0.2,2.3-0.4,3.4-0.8c0.2-0.1,0.4-0.2,0.5-0.4c0.9-1.6,2.3-2.8,3.7-4c1.1-1,2.2-1.9,3.5-2.7c0.7-0.5,1.6-0.8,2.3-1.1
		c0.3-0.1,0.6-0.1,0.7,0.2c0.2,0.4,0,0.6-0.3,0.8c-1,0.6-2,1.2-2.9,2c-1.6,1.5-3.3,2.9-4.8,4.5c-0.3,0.4-0.6,0.8-0.8,1.2
		c-0.4,0.8-0.2,1.2,0.7,1.3c1.4,0.1,2.6-0.4,3.8-1.1c2.9-1.7,4.3-4.4,4.7-7.7c0.1-1-0.1-1.9-0.6-2.8c-0.1-0.1-0.2-0.2,0-0.3
		c0.1-0.1,0.2,0,0.3,0.1c0.8,0.4,1.3,1.2,1.4,2c0.4,2.4,0.2,4.8-1.3,6.8c-2,2.7-4.5,4.6-8,4.7c-0.7,0-1.4,0-2-0.5
		c-0.7-0.6-1-1.3-0.9-2.2C48.2,45.7,48.2,45.6,48.2,45.5z"/>
	<path class="st0" d="M163.9,19c-0.7,0.2-1.4,0.2-1.9-0.2c-1.4-0.8-2.4-2-3.3-3.3c-1.1-1.7-2.1-3.5-3.2-5.3
		c-0.2-0.3-0.3-0.5-0.6-0.9c-0.2,1.1-0.6,2-0.9,2.9c-0.2,0.6-0.5,1.1-0.9,1.6c-1.1,1.2-2.4,1.1-3.8,0.4c-1.5-0.8-2.6-2.1-3.7-3.3
		c-0.8-0.9-1.6-1.9-2.4-2.8c-0.1-0.1-0.2-0.2-0.4-0.4c0.1,1.3,0.3,2.4,0.4,3.6c0.3,2.2,0.5,4.3,0.8,6.5c0.1,0.8-0.5,1.4-1.3,1.4
		c-0.5,0-0.8-0.3-0.5-0.8c0.2-0.4,0.2-0.8,0.1-1.2c-0.4-3.2-0.9-6.3-1.2-9.5c0-0.2,0-0.5,0-0.7c0-0.7,0.3-1.2,0.9-1.4
		c0.6-0.2,1.1,0.1,1.6,0.5c1.2,1.2,2.1,2.5,3.2,3.8c0.9,1.1,1.8,2.1,3,2.9c1.3,0.8,1.9,0.6,2.5-0.8c0.4-1.1,0.8-2.2,1-3.4
		c0.1-0.9,0.6-1.4,1.4-1.3c0.4,0,0.6,0.2,0.8,0.4c0.8,0.9,1.4,1.9,2,2.9c1.2,2,2.3,4.1,3.5,6.1c0.4,0.7,0.9,1.3,1.5,1.9
		C163,18.7,163.5,18.6,163.9,19z"/>
	<path class="st0" d="M64.2,9.5c-0.1,1.6-0.3,3-1,4.4c-0.5,0.9-2,1.8-3.1,1.5C58.5,15,57.2,14,56,13.1c-1.6-1.2-3-2.7-4.4-4.1
		c-0.3-0.3-0.7-0.6-1.1-0.9c-0.2,0.7,0,1.3,0.1,1.9c0.3,1.7,0.7,3.3,1.3,4.9c0,0.1,0.1,0.1,0.1,0.2c0.1,0.5,0.1,1-0.4,1.2
		s-0.8-0.2-1.1-0.6c-0.3-0.5-0.5-1-0.7-1.5c-0.5-2.1-1.2-4.1-1.1-6.2c0-0.6,0-1.2,0.7-1.6c0.7-0.5,1.4-0.2,2,0.2
		c0.9,0.6,1.6,1.3,2.4,2.1c1.7,1.7,3.5,3.3,5.6,4.6c1.3,0.7,2.1,0.5,2.6-0.9c0.5-1.1,0.5-2.3,0.5-3.5c0-0.4,0-0.9,0.1-1.3
		c0.1-0.7,0.6-1,1.2-0.7c0.4,0.2,0.8,0.4,1.1,0.8c1.6,2.1,3.5,4.1,5.3,6c1.3,1.5,2.9,2.5,4.9,3c0.2,0,0.5,0,0.4,0.3
		c0,0.2-0.3,0.1-0.5,0.1c-2.4-0.1-4.4-1.1-6.2-2.6C67.1,13,65.7,11.4,64.2,9.5z"/>
	<path class="st0" d="M40.5,11.8c1,1,2.2,1.7,3.2,2.5c1,0.7,1.9,1.5,3.1,1.9c0.8,0.3,0.8,0.3,1-0.5c0.4,0.4,0.6,0.8,0.4,1.3
		c-0.2,0.5-0.9,0.5-1.3,0.4c-1.2-0.1-2.3-0.6-3.4-1.3c-1.7-1.1-3.4-2.3-4.9-3.8c-0.4-0.4-0.8-0.5-1.4-0.4c-1.1,0.3-2.3,0.4-3.4,0.3
		c-0.4,0-0.8-0.1-1.1-0.2c-0.1,0.2,0,0.4,0.1,0.6c0.4,1.2,0.9,2.3,1.3,3.5c0.1,0.2,0.2,0.4,0.4,0.5c0.3,0.2,0.4,0.4,0.2,0.7
		c-0.2,0.3-0.5,0.4-0.8,0.3c-0.7-0.3-1.1-0.8-1.4-1.4c-1.6-3.3-2.4-6.8-2.6-10.4c0-0.2,0-0.5,0.1-0.7c0.3-1.5,1.6-1.9,2.9-1
		c1.2,1,2.3,2.2,3.4,3.3c1,1,2,2,2.9,3c0.3,0.3,0.6,0.4,1,0.4c1.3,0.1,2.6,0.2,3.8,0.6c0.1,0,0.4,0,0.3,0.3c0,0.2-0.2,0.1-0.4,0.1
		C42.6,11.7,41.6,11.6,40.5,11.8z M32.3,11.2c0.3-0.3,0.5-0.9,1.1-0.7c1,0.3,2.1,0.1,3.3,0.2c-0.6-0.6-1-1.1-1.5-1.6
		c-1.1-1.1-2.1-2.3-3.3-3.3c-0.1-0.1-0.2-0.3-0.4-0.2c-0.2,0.1-0.1,0.3-0.1,0.5C31.5,7.7,31.8,9.4,32.3,11.2z"/>
	<path class="st0" d="M121.9,5.1c0.4,1,1,1.9,1.4,2.9c0.7,1.7,1.5,3.4,1.8,5.2c0.3,1.6,0.5,3.1-0.2,4.6c-0.5,1.1-1.9,1.9-3.1,1.6
		c-1.2-0.3-2.3-0.9-3.2-1.6c-2.6-2.1-4.6-4.6-6.6-7.2c-0.8-1.1-1.7-2.1-2.6-3.1c-0.3-0.3-0.5-0.3-0.6,0.2c-0.3,1.1-0.3,2.3-0.4,3.5
		c-0.1,1.1-0.3,2.2-0.4,3.3c0,0.2-0.1,0.4-0.3,0.5c-0.2,0.2-0.3,0.3-0.6,0.3c-0.3-0.1-0.3-0.3-0.4-0.5c-0.1-0.9-0.2-1.8-0.1-2.6
		c0.2-1.7,0.2-3.4,0.6-5c0.3-1.2,1-1.7,1.9-1.5c0.5,0.1,1,0.4,1.4,0.8c1.2,1.1,2.1,2.4,3.1,3.6c1.9,2.3,3.7,4.6,6.1,6.5
		c0.6,0.5,1.2,0.9,1.9,1.1c1.2,0.3,1.9-0.1,2-1.4c0.2-2.1-0.1-4.1-0.5-6.1c-0.4-1.5-1-3-1.3-4.6C121.8,5.4,121.7,5.3,121.9,5.1z"/>
	<path class="st0" d="M96.3,15.4c-1.5,0.6-2.8,1.5-4.1,2.2c-2.1,1-4.2,1.8-6.4,2.3c-1.9,0.4-3.8,0.4-5.6-0.6c-1.1-0.7-1.7-1.8-1.8-3
		c-0.2-2.2,0.1-4.4,0.6-6.6c0.2-1,0.4-2.1,0.8-3.2c-1.2,0.2-2.3,0.5-3.4,1c-0.7,0.3-1.2,0.2-1.4-0.4c-0.2-0.5,0-0.9,0.7-1.2
		c2.6-1,5.3-1.5,8.1-1.6c1.3,0,2.5,0,3.8,0.1c0.3,0.1,0.6,0.2,0.9,0.3c0.4,0.2,0.6,0.5,0.5,1c-0.1,0.4-0.4,0.6-0.8,0.6
		c-0.7,0-1.4-0.1-2.1-0.2c-1.6-0.2-3.2-0.1-4.8,0.1c-0.3,0.1-0.5,0.2-0.6,0.5c-0.2,0.7-0.1,1.4-0.2,2.1c-0.2,2.3-0.6,4.6-0.5,6.9
		c0.1,1.9,1.3,2.5,2.7,2.6c1.6,0.2,3.1-0.3,4.6-0.5c2.8-0.5,5.5-1.4,8.1-2.3C95.7,15.4,95.9,15.2,96.3,15.4z"/>
	<path class="st0" d="M110.8,42.1c0.1,0.2,0.3,0.3,0.5,0.4c3.3,2.3,6.3,4.9,8.6,8.2c0.5,0.7,0.9,1.4,0.9,2.3
		c-0.1,0.8-0.7,1.4-1.4,1.5c-1.8,0.2-3.5-0.3-5.1-1c-1.7-0.8-3.3-1.6-4.8-2.7c-0.8-0.6-1.6-1.2-2.2-2c-0.1-0.1-0.2-0.2-0.1-0.3
		c0.1-0.2,0.3,0,0.4,0.1c2.8,2.2,6.2,3.1,9.6,4.1c0.5,0.1,1,0.1,1.5,0.2c0.4,0,0.5-0.2,0.3-0.5c-0.6-1.1-1.3-2.1-2.2-2.9
		c-2.1-2.2-4.4-4.2-7-5.8c-0.7-0.4-1.5-0.8-2.3-1.2c-0.2-0.1-0.5-0.2-0.7-0.4c-0.3-0.3-0.4-0.6-0.3-1c0.2-0.4,0.5-0.5,0.9-0.5
		c2,0,3.9-0.1,5.9-0.1c0.6,0,1.3-0.1,1.9-0.2c0.1,0,0.3,0,0.4-0.2c0.2-0.5,0.6-0.4,0.9-0.3c0.4,0.1,0.6,0.4,0.7,0.9
		c0.1,0.4-0.1,0.7-0.4,0.9c-0.6,0.5-1.3,0.4-2,0.5c-1.2,0.1-2.3,0.2-3.5,0.2C111.1,42,110.9,42,110.8,42.1z"/>
	<path class="st0" d="M128.5,10.5c-0.1,0.7,0.1,1.4,0.3,2.1c0.1,0.5,0,0.8-0.1,1.2c-0.1,0.3-0.3,0.5-0.7,0.4c-0.3,0-0.5-0.2-0.6-0.5
		c-0.8-2.2-0.9-4.4-0.7-6.7c0.1-0.5,0.3-1.1,0.6-1.5c0.8-1.3,2.1-1.1,3.4-0.3c1.5,0.9,2.6,2.3,3.6,3.7c1.8,2.5,3.4,5.1,4.9,7.7
		c0.3,0.5,0.6,1.1,0.6,1.8c0,0.8-0.7,1.2-1.4,0.8c-0.3-0.1-0.5-0.3-0.7-0.5c-2.7-2.2-5.5-4.3-7.9-6.8
		C129.2,11.5,128.9,10.9,128.5,10.5C128.5,10.5,128.4,10.5,128.5,10.5C128.4,10.5,128.4,10.5,128.5,10.5
		C128.4,10.5,128.5,10.5,128.5,10.5z M136.3,15.4l0.1,0.1c0.1,0,0-0.1,0-0.2c-1.4-2.4-2.9-4.7-4.6-6.8c-0.7-0.8-1.4-1.6-2.4-2.1
		c-0.4-0.2-0.6,0-0.7,0.3c-0.3,0.7-0.3,1.4-0.3,2c0,0.5-0.1,1,0.6,1.3c1,0.4,1.9,1.2,2.8,1.9C133.3,13,134.8,14.3,136.3,15.4z"/>
	<path class="st0" d="M166,12.9c-0.2,0.9,0,1.9,0.1,2.8c0.1,1.2,0.4,2.4,1,3.4c0.9,1.7,2.5,2.4,4.4,2.5c1.4,0,2.8-0.2,4.1-0.4
		c2.2-0.4,4.4-1,6.4-1.8c0.1,0,0.2-0.2,0.5,0c-0.6,0.4-1.2,0.8-1.8,1.1c-2.4,1-4.7,2.1-7.3,2.6s-5,0.2-6.9-1.8
		c-0.9-0.9-1.4-2.1-1.8-3.3c-0.7-2.6-0.8-5.3-0.6-8.1c0.1-1.4,0.3-2.8,0.8-4.2c0.1-0.3,0.3-0.6,0.7-0.6c0.4,0.1,0.5,0.4,0.5,0.8
		c-0.1,2-0.2,4.1-0.4,6.1C165.9,12.4,165.8,12.7,166,12.9L166,12.9z"/>
	<path class="st0" d="M84.9,51.5c-0.7-0.4-1.4-0.7-1.9-1.2c-1.3-1.1-2.1-2.6-2.5-4.3c-0.3-1.3-0.5-2.6-0.7-3.8
		c-0.1-0.5-0.2-0.6-0.7-0.5s-1-0.2-1.1-0.7s0.1-0.9,0.7-1c0.2,0,0.3-0.1,0.5-0.1c0.5,0.1,0.6-0.2,0.6-0.6c0.1-2.1,0.7-4.2,1.2-6.3
		c0.1-0.3,0.1-0.6,0.2-0.9s0.2-0.6,0.6-0.5s0.5,0.4,0.4,0.7c-0.3,1.7-0.6,3.5-0.8,5.2c-0.1,0.6-0.2,1.2-0.2,1.9
		c0,0.3,0.1,0.4,0.4,0.4c2.3,0,4.6,0.2,6.9,0.6c1.2,0.2,2.5,0.4,3.5,1.1c0.2,0.1,0.3,0.2,0.4,0.4c0.2,0.3,0.2,0.7,0,1
		s-0.5,0.3-0.8,0.3c-0.8-0.2-1.6-0.3-2.4-0.6c-1.2-0.5-2.5-0.7-3.9-0.8c-1.3-0.1-2.5-0.2-3.8-0.2c-0.2,0-0.5,0-0.5,0.4
		c0.1,2.1,0.1,4.2,0.9,6.2c0.5,1.2,1.2,2.2,2.3,2.8C84.6,51,84.8,51,84.9,51.5z"/>
	<path class="st0" d="M135.7,42.9c-0.1-0.4-0.3-0.6-0.5-0.8c-0.1-0.1-0.2-0.3-0.1-0.4c0.1-0.1,0.3,0,0.4,0c2.2,1.2,4.1,3.8,3.9,6.5
		c-0.1,1.5-1,2.5-2.2,3.3c-1.9,1.2-4,1.6-6.3,1.2c-1.3-0.3-2.3-1-2.4-2.6c0-0.6,0.2-1.1,0.5-1.6c0.8-1.6,2-2.8,3.3-4
		c0.6-0.6,1.3-1.1,2.1-1.4C134.8,42.8,135.2,42.5,135.7,42.9z M135.7,42.9c0.1,0.6-0.2,0.8-0.6,1.1c-1.7,1.5-3.3,3.1-4.6,5
		c-0.7,1.1-0.3,1.9,1,2.1c1.7,0.2,3.3-0.2,4.7-1c1.3-0.8,1.7-1.8,1.2-3.2c-0.2-0.6-0.4-1.2-0.6-1.7
		C136.7,44.2,136.3,43.6,135.7,42.9z"/>
	<path class="st0" d="M64.5,41.8c-0.1,0.5-0.2,0.9-0.3,1.2c-0.2,0.9-1.2,1.4-2,1.2c-0.4-0.1-0.7-0.6-0.3-0.9
		c0.9-0.6,0.8-1.5,1.1-2.3c0.1-0.4,0.2-0.9,0.3-1.3c0.1-0.6,0.4-0.8,0.9-1c0.5-0.1,0.9,0.1,1.2,0.6c0.6,1.2,1.2,2.4,2.1,3.4
		c0.5,0.7,1.2,1.2,1.9,1.5c1.4,0.5,3.1-0.3,3.7-1.7c0.8-1.7,1.3-3.5,1.3-5.5c0-0.3,0-0.6-0.1-0.9c0-0.2,0-0.3,0.2-0.3
		c0.2-0.1,0.3,0.1,0.3,0.2c0.1,0.2,0.2,0.5,0.3,0.7c0.6,2.3,0.5,4.5-0.6,6.7c-0.9,1.8-2.6,2.8-4.5,2.7c-1,0-2-0.6-2.8-1.2
		c-0.7-0.6-1.3-1.3-1.8-2C65.1,42.7,64.8,42.3,64.5,41.8z"/>
	<path class="st0" d="M166.1,13c0-0.8,0.3-1.1,1.1-1.2c4.4-0.5,8.8-0.8,13.3-0.7c1.7,0,3.3,0.2,4.9,0.4c0.2,0,0.5,0.1,0.7,0.2
		c0.3,0.2,0.4,0.5,0.4,0.8c0,0.4-0.3,0.6-0.6,0.7s-0.6,0.1-0.9,0c-1.4-0.5-2.9-0.5-4.3-0.5c-4.2-0.1-8.4,0.2-12.6,0.6
		c-0.2,0-0.5,0.1-0.7,0.1C166.7,13.6,166.4,13.4,166.1,13C166,12.9,166.1,13,166.1,13z"/>
	<path class="st0" d="M87.6,28.9c2.9-0.1,5.8,0.2,8.7,0c1.5-0.1,3,0.1,4.5-0.1c0.1,0,0.4-0.1,0.4,0.1s-0.2,0.2-0.3,0.3
		c-1.3,0.4-2.6,0.4-3.9,0.5c-4.6,0.5-9.1,0.7-13.7,1c-1.4,0.1-2.8,0.1-4.3,0.2c-0.3,0-0.6,0.1-0.8,0.2c-0.3,0.1-0.4,0-0.6-0.2
		s-0.1-0.4,0.1-0.6c0.4-0.6,1-0.8,1.7-0.9c1.3-0.3,2.6-0.2,3.9-0.3C84.7,29,86.1,29,87.6,28.9z"/>
	<path class="st0" d="M161.6,2.5c2.2,0.1,4.5-0.3,6.7-0.3c2.6-0.1,5.2-0.1,7.8,0.2c1.9,0.2,3.9,0.4,5.8,1c0.2,0.1,0.5,0.1,0.4,0.3
		c-0.1,0.2-0.3,0.1-0.5,0.1c-2.3-0.2-4.6-0.3-6.8-0.2c-2.4,0.1-4.7,0.1-7.1,0.2c-1.8,0.1-3.6,0.2-5.4,0.4c-0.5,0-0.9,0-1.3-0.2
		c-0.4-0.2-0.6-0.5-0.5-0.9S161.1,2.4,161.6,2.5z"/>
	<path class="st0" d="M88.3,12.5c-1.8,0.1-3.6,0.3-5.3,0.5c-0.5,0.1-1,0.2-1.6,0.2s-1-0.3-1.1-0.8c0-0.5,0.3-1,0.9-1
		c2.4-0.1,4.8-0.6,7.2-0.7c2.1-0.1,4.2-0.2,6.3,0.1c0.4,0.1,0.9,0.1,1.2,0.4c0.3,0.3,0.6,0.6,0.4,1.1C96.1,12.9,95.5,13,95,13
		c-2.3-0.1-4.6-0.3-6.9-0.1c-0.1,0-0.3,0.1-0.4-0.1C87.9,12.6,88.1,12.6,88.3,12.5z"/>
	<path class="st0" d="M101.4,41.7c1.5,0.4,2.4,1.5,2.7,2.9c0.4,2.3-0.8,3.7-2.5,4.9c-1,0.7-2,1.1-3.2,1.1c-1.5,0-2.5-0.8-3-2.1
		c-0.5-1.2-0.4-2.4-0.5-3.6c0-0.4-0.1-0.8-0.1-1.2c0-0.3,0.1-0.6,0.4-0.6c0.3-0.1,0.5,0.1,0.6,0.4c0.3,0.9,0.4,1.9,0.6,2.8
		c0.1,0.6,0.3,1.3,0.6,1.8c0.3,0.6,0.8,0.9,1.5,0.8c2.4-0.2,4.5-2.7,4.2-5c-0.1-0.6-0.4-1.1-0.7-1.5C101.8,42.2,101.7,42,101.4,41.7
		z"/>
	<path class="st0" d="M125.5,49.3c0,1,0,1.9,0.1,2.8c0,0.5,0,0.9-0.2,1.4c-0.1,0.3-0.3,0.6-0.7,0.6s-0.5-0.4-0.6-0.7
		c-0.4-1.5-0.3-3-0.3-4.5s0.2-3,0.4-4.4c0.1-0.4,0.2-0.6,0.6-0.6c0.4,0,0.5,0.3,0.5,0.6C125.7,46.1,125.4,47.8,125.5,49.3z"/>
</g>
</svg>
