<?xml version="1.0" encoding="utf-8"?>
<!-- Generator: Adobe Illustrator 21.0.0, SVG Export Plug-In . SVG Version: 6.00 Build 0)  -->
<svg version="1.1" id="Layer_1" xmlns="http://www.w3.org/2000/svg" xmlns:xlink="http://www.w3.org/1999/xlink" x="0px" y="0px"
	 viewBox="0 0 14 14" style="enable-background:new 0 0 14 14;" xml:space="preserve">
<style type="text/css">
	.st0{fill:#1ED75F;}
	.st1{fill:#FFFFFF;}
</style>
<title>spotify</title>
<g id="Layer_2">
	<rect class="st0" width="14" height="14"/>
	<path class="st1" d="M9.8,6.5c-1.7-0.8-3.7-1-5.6-0.6C4,6,3.8,5.8,3.7,5.6S3.8,5.1,4,5l0,0c2.1-0.6,4.3-0.3,6.3,0.6
		c0.2,0.1,0.2,0.4,0.1,0.6C10.3,6.4,10,6.5,9.8,6.5L9.8,6.5z M9.8,7.8C9.7,8,9.4,8,9.3,7.9c0,0,0,0,0,0c-1.5-0.8-3.2-1-4.8-0.5
		C4.3,7.4,4.1,7.3,4,7.1C4,6.9,4.1,6.7,4.3,6.7l0,0C6.1,6.2,8,6.4,9.7,7.3C9.8,7.4,9.9,7.6,9.8,7.8C9.8,7.8,9.8,7.8,9.8,7.8L9.8,7.8
		z M9.2,9.1C9.1,9.3,8.9,9.3,8.8,9.2C7.5,8.5,6,8.3,4.6,8.8c-0.2,0.1-0.3,0-0.4-0.2c-0.1-0.2,0-0.3,0.2-0.4c0,0,0.1,0,0.1,0
		C6,7.7,7.7,7.9,9.1,8.7C9.2,8.8,9.3,9,9.2,9.1z M7,2.2C4.4,2.2,2.2,4.4,2.2,7s2.1,4.8,4.8,4.8s4.8-2.1,4.8-4.8S9.6,2.2,7,2.2L7,2.2
		z"/>
</g>
</svg>
